<?xml version="1.0" encoding="utf-8"?>
<!-- Generator: Adobe Illustrator 21.1.0, SVG Export Plug-In . SVG Version: 6.00 Build 0)  -->
<svg version="1.1" id="Layer_1" xmlns="http://www.w3.org/2000/svg" xmlns:xlink="http://www.w3.org/1999/xlink" x="0px" y="0px"
	 viewBox="0 0 38 35" style="enable-background:new 0 0 38 35;" xml:space="preserve">
<style type="text/css">
	.st0{fill:#4A90E2;}
</style>
<title>acquirers</title>
<desc>Created with Sketch.</desc>
<g id="Home">
	<g id="Homepage-_x2B_-Guide-Me" transform="translate(-292.000000, -590.000000)">
		<g id="acquirers" transform="translate(292.000000, 590.000000)">
			<path id="Page-1" class="st0" d="M2.3,13.4H0V9.7l19-8.8l19,8.8v3.7h-2.2V26H38v8.4H0v-8.3h2.3V13.4z M36,11L19,3.1L2,11v0.5h2.2
				v16.6H2v4.3h34V28h-2.2V11.4H36V11z"/>
			<path id="Path" class="st0" d="M27.7,30.2V15v1.5h2.5v-3H29h1.2v15.2v-1.5h-2.5V30.2H29H27.7z M27.7,30.2V13.5h2.5v16.7H27.7z"/>
			<path id="Path_1_" class="st0" d="M22.7,30.2V15v1.5h2.5v-3H24h1.2v15.2v-1.5h-2.5V30.2H24H22.7z M22.7,30.2V13.5h2.5v16.7H22.7z
				"/>
			<path id="Path_2_" class="st0" d="M17.7,30.2V15v1.5h2.5v-3H19h1.2v15.2v-1.5h-2.5V30.2H19H17.7z M17.7,30.2V13.5h2.5v16.7H17.7z
				"/>
			<path id="Path_3_" class="st0" d="M14,30.2h-1.2V15v1.5h2.5v-3H14h1.2v15.2v-1.5h-2.5v3H14z M12.7,30.2V13.5h2.5v16.7H12.7z"/>
			<path id="Path_4_" class="st0" d="M17.5,8.6c0,0.7,0.7,1.3,1.5,1.3c0.8,0,1.5-0.6,1.5-1.3c0-0.7-0.7-1.3-1.5-1.3
				C18.2,7.3,17.5,7.9,17.5,8.6z M16,8.6c0-1.6,1.4-2.8,3-2.8c1.6,0,3,1.3,3,2.8c0,1.6-1.4,2.8-3,2.8C17.4,11.5,16,10.2,16,8.6z"/>
			<path id="Path_5_" class="st0" d="M7.7,30.2V15v1.5h2.5v-3H9h1.2v15.2v-1.5H7.7V30.2H9H7.7z M7.7,30.2V13.5h2.5v16.7H7.7z"/>
		</g>
	</g>
</g>
</svg>
