<?xml version="1.0" encoding="utf-8"?>
<!-- Generator: Adobe Illustrator 21.1.0, SVG Export Plug-In . SVG Version: 6.00 Build 0)  -->
<svg version="1.1" id="Layer_1" xmlns="http://www.w3.org/2000/svg" xmlns:xlink="http://www.w3.org/1999/xlink" x="0px" y="0px"
	 viewBox="0 0 38 38" style="enable-background:new 0 0 38 38;" xml:space="preserve">
<style type="text/css">
	.st0{fill:#4A90E2;}
</style>
<title>isvs</title>
<desc>Created with Sketch.</desc>
<g id="usbank" transform="translate(-524.000000, -589.000000)">
	<g id="isvs" transform="translate(524.000000, 589.000000)">
		<g id="Group">
			<g id="circle-user-7">
				<path id="Path" class="st0" d="M18.7,1.8C9.4,1.8,1.8,9.3,1.8,18.5c0,5,2.2,9.4,5.7,12.5c1.2-0.6,2.5-1.1,3.4-1.5
					c0.1-0.1,1.5-0.6,1.5-0.6s4.2-2.1,2.1-4.2c-0.9-0.9-1.4-2.4-1.7-4.1c-0.5,0-1.1-1.1-1.5-2.5c-0.4-1.5-0.3-2.8,0.2-3
					c0.1,0,0.1,0,0.2,0c-0.2-1.2-0.1-2.4,0.2-2.9c1.1-1.5,1.5-2,2.4-3.5c1.5-2.5,8.6-2.7,8.6-2.7s-2,2.1-0.3,2.7
					c1.7,0.6,1.8,2,2.8,3.5c0.4,0.5,0.4,1.7,0.3,2.9c0.1,0,0.1,0,0.1,0c0.5,0.1,0.6,1.5,0.2,3c-0.4,1.4-1,2.5-1.5,2.5
					c-0.3,1.7-0.8,3.2-1.7,4.1c-2.1,2.1,2.1,4.2,2.1,4.2s1.3,0.6,1.5,0.6c0.9,0.4,2.2,1,3.4,1.5c3.5-3.1,5.7-7.5,5.7-12.5
					C35.6,9.3,28,1.8,18.7,1.8z M23.8,17.2l0.2-2.3c0.1-0.6,0.1-1,0-1.4c0-0.2,0-0.3-0.1-0.4c-0.2-0.3-0.4-0.6-0.6-1
					c-0.1-0.2-0.4-0.8-0.4-0.8c-0.4-0.7-0.5-0.8-0.9-1C20.8,9.9,20.2,9,20.2,8c-0.5,0.1-0.9,0.2-1.3,0.2c-1.7,0.4-2.8,0.9-3,1.4
					c-0.4,0.6-0.7,1.1-1,1.5c-0.1,0.1-0.1,0.1-0.2,0.2c-0.1,0.1-0.9,1.2-1.3,1.7c0,0.1,0,0.2,0,0.4c0,0.4,0,0.9,0.1,1.4l0.3,2.6
					l-0.9-0.2c0,0.1,0.1,0.3,0.1,0.4c0.1,0.5,0.3,0.9,0.4,1.2l0.8,0l0.3,1.4c0.3,1.6,0.7,2.7,1.2,3.2c2.1,2,1.2,4.3-0.9,6
					c-0.6,0.5-1.2,0.9-1.7,1.1L13,30.4c-0.2,0.1-0.5,0.2-0.7,0.3c-0.4,0.2-0.7,0.3-0.7,0.3c-1.1,0.5-2.3,1-3.3,1.5l-1,0.5l-0.9-0.8
					C2.3,28.8,0,23.8,0,18.5C0,8.3,8.4,0,18.7,0s18.7,8.3,18.7,18.5c0,5.3-2.3,10.3-6.3,13.8L30.2,33l-1-0.5c-1-0.5-2.2-1-3.3-1.5
					c-0.1,0-0.3-0.1-0.7-0.3c-0.3-0.1-0.6-0.2-0.7-0.3l-0.1-0.1c-0.4-0.2-1-0.6-1.7-1.1c-2.1-1.7-3-3.9-0.9-6
					c0.5-0.5,0.9-1.6,1.2-3.2l0.3-1.4l0.8,0c0.2-0.3,0.3-0.7,0.4-1.2c0-0.2,0.1-0.4,0.1-0.5L23.8,17.2z"/>
				<path id="Path_1_" class="st0" d="M18.9,37.1c-10.3,0-18.7-8.3-18.7-18.5S8.5,0.1,18.9,0.1s18.7,8.3,18.7,18.5
					S29.2,37.1,18.9,37.1z M18.9,35.4c9.4,0,17-7.5,17-16.7s-7.6-16.7-17-16.7s-17,7.5-17,16.7S9.5,35.4,18.9,35.4z"/>
			</g>
		</g>
	</g>
</g>
</svg>
