<svg id="Layer_1" data-name="Layer 1" xmlns="http://www.w3.org/2000/svg" viewBox="0 0 42 32"><defs><style>.cls-1{fill:#4a90e2;}.cls-2{fill:none;}</style></defs><title>Artboard 1</title><g id="usbank"><g id="merchants"><path id="Shape" class="cls-1" d="M5.74,18.34V29.49c0,.18.32.43.81.43h28.3a1,1,0,0,0,.65-.2.29.29,0,0,0,.11-.28V18.34ZM34.85,31.91H6.55a2.63,2.63,0,0,1-2.81-2.43V16.34H37.62v13a2.23,2.23,0,0,1-.81,1.89A3,3,0,0,1,34.85,31.91Z"/><polygon id="Path" class="cls-2" points="6.62 30.08 34.74 30.08 34.74 17.45 6.62 17.45 6.62 30.08"/><path id="Shape-2" data-name="Shape" class="cls-1" d="M39.39,12.26,33.24,2H8.17L2,12.26v4.19H39.39ZM0,18.45V11.7L7,0H34.37l7,11.66v6.75Z"/><polygon id="Path-2" data-name="Path" class="cls-2" points="2.9 15.68 38.51 15.68 38.51 12.45 32.7 2.81 8.7 2.81 2.9 12.45 2.9 15.68"/><path id="Shape-3" data-name="Shape" class="cls-1" d="M17.8,25.59H12a1.76,1.76,0,0,1-1.81-1.7V22A1.76,1.76,0,0,1,12,20.28H17.8A1.76,1.76,0,0,1,19.61,22v1.91A1.76,1.76,0,0,1,17.8,25.59Zm-5.68-1.77h5.61V22H12.12Z"/><path id="Shape-4" data-name="Shape" class="cls-1" d="M31.16,31.85H23.36V20.31h7.81Zm-5.93-1.77h4.05v-8h-4v8Z"/><rect id="Rectangle-path" class="cls-1" x="19.76" y="1.92" width="1.88" height="14.64"/><polygon id="Shape-5" data-name="Shape" class="cls-1" points="30.64 16.57 28.76 16.57 28.76 12.32 25.93 2.15 27.75 1.7 30.64 12.1 30.64 16.57"/><polygon id="Shape-6" data-name="Shape" class="cls-1" points="12.64 16.57 10.76 16.57 10.76 12.1 13.65 1.7 15.47 2.15 12.64 12.32 12.64 16.57"/></g></g></svg>