<?xml version="1.0" encoding="utf-8"?>
<!-- Generator: Adobe Illustrator 21.1.0, SVG Export Plug-In . SVG Version: 6.00 Build 0)  -->
<svg version="1.1" id="Layer_1" xmlns="http://www.w3.org/2000/svg" xmlns:xlink="http://www.w3.org/1999/xlink" x="0px" y="0px"
	 viewBox="0 0 38 25.7" style="enable-background:new 0 0 38 25.7;" xml:space="preserve">
<style type="text/css">
	.st0{fill:#4A90E2;}
</style>
<title>acquirers</title>
<desc>Created with Sketch.</desc>
<path class="st0" d="M6.3,21.3h25.4c1.2,0,2.2-1,2.2-2.2v-17c0-1.2-1-2.2-2.2-2.2H6.3C5.1,0,4.1,1,4.1,2.2v17
	C4.1,20.3,5.1,21.3,6.3,21.3z M6.4,2.2h25.2v17H6.4V2.2z"/>
<path class="st0" d="M0,22.6v0.9c0,1.2,1,2.2,2.2,2.2h33.6c1.2,0,2.2-1,2.2-2.2v-0.9H0z M20.5,24.7h-3.1v-1.2h3.1V24.7z"/>
</svg>
