<?xml version="1.0" encoding="utf-8"?>
<!-- Generator: Adobe Illustrator 21.1.0, SVG Export Plug-In . SVG Version: 6.00 Build 0)  -->
<svg version="1.1" id="Layer_1" xmlns="http://www.w3.org/2000/svg" xmlns:xlink="http://www.w3.org/1999/xlink" x="0px" y="0px"
	 viewBox="0 0 40 29" style="enable-background:new 0 0 40 29;" xml:space="preserve">
<style type="text/css">
	.st0{fill:#4A90E2;}
</style>
<title>issuers</title>
<desc>Created with Sketch.</desc>
<g id="usbank" transform="translate(-180.000000, -594.000000)">
	<g id="issuers" transform="translate(180.000000, 594.000000)">
		<path id="Shape" class="st0" d="M33.8,23.1l-0.2-1.7l3.6-0.4L34.7,1.7L4,5.1l0.3,2.4L2.4,7.7L2.1,5.1C2,4.3,2.6,3.6,3.5,3.5
			L34.8,0h0c0.9-0.1,1.6,0.5,1.7,1.3l2.6,19.8v0c0.1,0.8-0.5,1.5-1.4,1.6L33.8,23.1z"/>
		<path id="Shape_1_" class="st0" d="M33.1,28.6H1.6c-0.9,0-1.6-0.6-1.6-1.5V7.2c0-0.8,0.7-1.5,1.6-1.5h31.5c0.9,0,1.6,0.6,1.6,1.5
			v19.9C34.7,27.9,34,28.6,33.1,28.6z M1.9,26.9h31V7.5h-31V26.9z"/>
		<rect id="Rectangle-2" x="1.4" y="11.1" class="st0" width="31.5" height="4.1"/>
	</g>
</g>
</svg>
