<?xml version="1.0" encoding="utf-8"?>
<!-- Generator: Adobe Illustrator 21.1.0, SVG Export Plug-In . SVG Version: 6.00 Build 0)  -->
<svg version="1.1" id="Layer_1" xmlns="http://www.w3.org/2000/svg" xmlns:xlink="http://www.w3.org/1999/xlink" x="0px" y="0px"
	 viewBox="0 0 36 6" style="enable-background:new 0 0 36 6;" xml:space="preserve">
<style type="text/css">
	.st0{fill:#4A90E2;stroke:#4A90E2;stroke-width:1.5;}
</style>
<title>browse-all</title>
<desc>Created with Sketch.</desc>
<g id="usbank" transform="translate(-640.000000, -600.000000)">
	<path id="browse-all" class="st0" d="M643.1,601c0.6,0,1.1,0.2,1.5,0.6s0.6,0.9,0.6,1.4s-0.2,1.1-0.6,1.4s-0.9,0.6-1.5,0.6
		c-0.6,0-1.1-0.2-1.5-0.6c-0.4-0.4-0.6-0.9-0.6-1.4s0.2-1.1,0.6-1.4C642,601.2,642.5,601,643.1,601z M658,601c0.6,0,1.1,0.2,1.5,0.6
		s0.6,0.9,0.6,1.4s-0.2,1.1-0.6,1.4s-0.9,0.6-1.5,0.6c-0.6,0-1.1-0.2-1.5-0.6s-0.6-0.9-0.6-1.4s0.2-1.1,0.6-1.4S657.4,601,658,601z
		 M672.9,601c0.6,0,1.1,0.2,1.5,0.6s0.6,0.9,0.6,1.4s-0.2,1.1-0.6,1.4s-0.9,0.6-1.5,0.6c-0.6,0-1.1-0.2-1.5-0.6
		c-0.4-0.4-0.6-0.9-0.6-1.4s0.2-1.1,0.6-1.4C671.7,601.2,672.3,601,672.9,601z"/>
</g>
</svg>
