<?xml version="1.0" standalone="no"?><!DOCTYPE svg PUBLIC "-//W3C//DTD SVG 1.1//EN" "http://www.w3.org/Graphics/SVG/1.1/DTD/svg11.dtd"><svg class="icon" height="512" viewBox="0 0 1024 1024" version="1.1" xmlns="http://www.w3.org/2000/svg"><path d="M987.733333 324.266667L552.533333 759.466667c-8.533333 8.533333-21.333333 14.933333-36.266666 14.933333-12.8 0-25.6-4.266667-36.266667-14.933333L260.266667 539.733333c-19.2-19.2-19.2-51.2 0-72.533333 19.2-19.2 51.2-19.2 72.533333 0l40.533333 40.533333 142.933334 128 418.133333-405.333333c2.133333-2.133333 2.133333-2.133333 4.266667-2.133333C846.933333 91.733333 691.2 0 512 0 228.266667 0 0 228.266667 0 512s228.266667 512 512 512 512-228.266667 512-512c0-66.133333-12.8-130.133333-36.266667-187.733333z" fill="#006A9C" /></svg>